<svg xmlns="http://www.w3.org/2000/svg" fill="none" viewBox="0 0 14 14"><g stroke="currentColor" stroke-linecap="round" stroke-linejoin="round"><path d="M6.542 9.115 4.885 7.458A26.085 26.085 0 0 0 .942 10.76c-.615.629-.577 1.63.045 2.253.622.622 1.624.66 2.253.045a26.087 26.087 0 0 0 3.302-3.943Z"/><path d="M8.89 1.171A2.887 2.887 0 0 0 7.314.507C5.52.355 3.02 2.856 3.17 4.649c.047.557.282 1.113.665 1.578a30.583 30.583 0 0 0 3.939 3.938c.464.384 1.02.618 1.577.665 1.793.152 4.294-2.35 4.142-4.143a2.888 2.888 0 0 0-.664-1.578A30.554 30.554 0 0 0 8.89 1.171Z"/></g></svg>